<?xml version="1.0" encoding="utf-8"?>
<!-- Generator: Adobe Illustrator 19.0.0, SVG Export Plug-In . SVG Version: 6.00 Build 0)  -->
<svg version="1.1" id="Layer_1" xmlns="http://www.w3.org/2000/svg" xmlns:xlink="http://www.w3.org/1999/xlink" x="0px" y="0px"
	 viewBox="-482.5 185 215.8 198" style="enable-background:new -482.5 185 215.8 198;" xml:space="preserve">
<style type="text/css">
	.st0{fill:#F44336;}
	.st1{fill:#BC2E2E;}
</style>
<g id="XMLID_2_">
	<g id="XMLID_14_">
		<path class="st0" d="M-417.8,214.8c0,0-0.8,1.2-2.3,3.5c-1.5,2.3-3.7,5.6-6.5,9.8c-0.7,1.1-1.4,2.2-2.2,3.3
			c-0.4,0.6-0.8,1.2-1.2,1.8c-0.4,0.6-0.9,1.2-1.3,1.8c-1.8,2.4-3.5,5.1-5.2,8.1c-3.4,6-6.3,13.4-7.9,21.8
			c-0.8,4.2-1.2,8.6-1.2,13.2c0,1.2,0.1,2.3,0.1,3.5c0.1,1.2,0.2,2.3,0.3,3.5c0.1,1.2,0.3,2.4,0.5,3.6c0.2,1.2,0.4,2.4,0.6,3.6
			c2,9.6,6.1,19.2,12.4,27.8c6.3,8.5,14.8,16,24.8,21c9.9,5.1,21.3,7.8,32.6,7.8c2.9-0.1,5.7-0.2,8.5-0.6l2.1-0.3l2.1-0.4
			c1.4-0.2,2.8-0.6,4.1-0.9c5.5-1.3,10.8-3.4,15.7-6c5-2.6,9.5-5.8,13.7-9.4c4.1-3.6,7.8-7.6,10.9-11.9c6.3-8.6,10.3-18.3,12.1-27.9
			c0.9-4.8,1.3-9.6,1.3-14.1c0-2.4-0.1-4.6-0.4-6.8c-0.1-1.1-0.2-2.2-0.4-3.3c-0.2-1.1-0.3-2.1-0.5-3.2c-1.6-8.4-4.6-15.7-8.1-21.7
			c-1.7-3-3.6-5.7-5.4-8c-1.8-2.4-3.4-4.7-4.9-6.7c-3-4.1-5.3-7.3-6.9-9.5c-1.6-2.2-2.4-3.4-2.4-3.4s0.9,1.1,2.7,3.1
			c1.8,2,4.3,5.1,7.6,8.9c1.6,1.9,3.5,4,5.4,6.4c1.9,2.4,3.8,5.2,5.5,8.3c3.5,6.2,6.6,13.7,8.3,22.3c0.2,1.1,0.4,2.2,0.6,3.3
			c0.2,1.1,0.3,2.2,0.4,3.4c0.2,2.3,0.3,4.6,0.4,6.9c0,4.7-0.4,9.6-1.4,14.5c-1.9,9.9-6.1,19.8-12.5,28.7c-3.2,4.4-7,8.6-11.2,12.3
			c-4.2,3.7-9,7-14.1,9.6c-5.1,2.7-10.5,4.8-16.2,6.2c-1.4,0.3-2.8,0.7-4.3,0.9l-2.2,0.4l-2.2,0.3c-2.9,0.4-5.9,0.5-8.7,0.6
			c-11.7,0-23.4-2.7-33.6-8c-10.3-5.2-19-12.9-25.5-21.6c-6.5-8.8-10.8-18.8-12.8-28.6c-0.2-1.2-0.4-2.5-0.7-3.7
			c-0.2-1.2-0.3-2.4-0.5-3.7c-0.1-1.2-0.2-2.4-0.3-3.6c0-1.2-0.1-2.4-0.1-3.5c0-4.8,0.4-9.3,1.2-13.6c1.6-8.6,4.6-16.2,8.1-22.4
			c1.7-3.1,3.6-5.9,5.5-8.3c1.9-2.3,3.6-4.6,5.1-6.5c3.1-4,5.5-7.1,7.2-9.2C-418.7,215.9-417.8,214.8-417.8,214.8z"/>
	</g>
	<g id="XMLID_9_">
		<path id="XMLID_66_" class="st1" d="M-366.5,322.4l13.3-75h-38c-5.9,0-10.6,1-14,3c-3.4,2-5.8,5.1-7.3,9.2
			c-2.2,6.1,2.1,9.7,3.5,13.6c1.3,3.9-0.9,7.8,2.7,8.7l-0.1,0.7c-7.9,1.4-13.3,6.1-16.2,14.3c-2.6,7.2-2.7,13.2-0.4,18.1
			c2.3,4.9,7.1,7.3,14.4,7.3H-366.5z M-393.9,289.3h15.5l-3.6,20.5h-15.2c-3.4,0-5.6-1.3-6.4-4c-0.8-2.7-0.5-6.1,1-10.2
			C-401.3,291.4-398.3,289.3-393.9,289.3z M-386.5,259.1h15.6l-4,23.6h-15.4c-8,0-10-5.5-6.1-16.5
			C-394.6,261.4-391.3,259.1-386.5,259.1z"/>
		<path id="XMLID_10_" class="st1" d="M-348.1,304.3H-363l-3.1,18.1h-22.8l13.2-75h36c13.6,0,20.4,6.3,20.4,19
			c0,6-0.8,11.4-2.5,16.3c-1.7,4.8-3.5,8.7-5.6,11.5c-2,2.8-4.8,5.2-8.4,7.2S-343.5,304.3-348.1,304.3z M-355,260.5l-5.7,32.7h9.4
			c4.8,0,8.5-0.5,10.9-1.6c2.5-1.1,4.1-3.5,4.8-7.3c1.8-10.5,2.8-16.2,2.8-17.2c0-2.7-1.1-4.5-3.2-5.3c-2.1-0.9-5.3-1.3-9.6-1.3
			H-355z"/>
	</g>
	<g id="XMLID_1_">
		<path id="XMLID_5_" class="st0" d="M-369.1,319.8l13.3-75h-38c-5.9,0-10.6,1-14,3c-3.4,2-5.8,5.1-7.3,9.2
			c-2.2,6.1-2.6,11.1-1.2,15c1.3,3.9,3.8,6.4,7.4,7.3l-0.1,0.7c-7.9,1.4-13.3,6.1-16.2,14.3c-2.6,7.2-2.7,13.2-0.4,18.1
			c2.3,4.9,7.1,7.3,14.4,7.3H-369.1z M-398.3,284.9h15.5l-3.6,20.5h-15.2c-3.4,0-5.6-1.3-6.4-4c-0.8-2.7-0.5-6.1,1-10.2
			C-405.6,287-402.7,284.9-398.3,284.9z M-392,253.5h15.6l-4,23.6h-15.4c-8,0-10-5.5-6.1-16.5C-400.2,255.9-396.9,253.5-392,253.5z"
			/>
		<path id="XMLID_11_" class="st0" d="M-350.7,301.6h-14.9l-3.1,18.1h-22.8l13.2-75h36c13.6,0,20.4,6.3,20.4,19
			c0,6-0.8,11.4-2.5,16.3c-1.7,4.8-3.5,8.7-5.6,11.5c-2,2.8-4.8,5.2-8.4,7.2C-342,300.7-346.1,301.6-350.7,301.6z M-359.6,255.8
			l-5.7,32.7h9.4c4.8,0,8.5-0.5,10.9-1.6c2.5-1.1,4.1-3.5,4.8-7.3c1.8-10.5,2.8-16.2,2.8-17.2c0-2.7-1.1-4.5-3.2-5.3
			c-2.1-0.9-5.3-1.3-9.6-1.3H-359.6z"/>
	</g>
</g>
</svg>
