<?xml version="1.0" encoding="utf-8"?>
<!-- Generator: Adobe Illustrator 19.0.0, SVG Export Plug-In . SVG Version: 6.00 Build 0)  -->
<svg version="1.0" id="Layer_1" xmlns="http://www.w3.org/2000/svg" xmlns:xlink="http://www.w3.org/1999/xlink" x="0px" y="0px"
	 viewBox="0 0 712 192" style="enable-background:new 0 0 712 192;" xml:space="preserve">
<style type="text/css">
	.st0{fill:#00AEEF;}
	.st1{fill:#FFFFFF;}
</style>
<g id="XMLID_184_">
	<path id="XMLID_182_" class="st0" d="M202.3,53.4c-2-7.6-8-13.6-15.6-15.7C173,34,118,34,118,34s-55,0-68.8,3.7
		c-7.6,2-13.5,8-15.6,15.7C30,67.2,30,96,30,96s0,28.8,3.7,42.6c2,7.6,8,13.6,15.6,15.7C63,158,118,158,118,158s55,0,68.8-3.7
		c7.6-2,13.5-8,15.6-15.7C206,124.8,206,96,206,96S206,67.2,202.3,53.4z"/>
	<polygon id="XMLID_1355_" class="st1" points="100,122.2 146,96 100,69.8 	"/>
</g>
<g id="XMLID_1_">
	<path id="XMLID_2_" d="M244.7,40.2l8,34.8l0.4,1h0.3l0.4-1l8-34.8h15.7l-16.3,62.4V149h-16v-46.3L229,40.2H244.7z"/>
	<path id="XMLID_4_" d="M283.1,88.2c0.4-7.9,3.1-13.9,7.9-18.1c2.4-2.2,6.1-3.3,11-3.3c8,0,13.5,3.5,16.7,10.6
		c1.4,3.5,2.2,6.9,2.4,10.3v41.6c-0.2,4-1,7.3-2.2,10.2c-1.2,2.8-3.2,5.3-5.7,7.4c-2.6,2.2-6.3,3.3-11.1,3.3
		c-7.9,0-13.5-3.5-16.6-10.6c-1.4-3.5-2.2-7-2.4-10.7V88.2z M297,129.7c0,2.5,0.7,4.5,2,6.2c0.8,0.8,1.8,1.2,3.1,1.2
		c2.5,0,4-1.3,4.7-4c0.3-0.9,0.5-1.9,0.5-3c0-0.4,0-0.8-0.1-1.2V88.2c0-0.2,0-0.5,0-0.8c0-2.6-0.6-4.7-1.9-6.3
		c-0.8-0.8-1.9-1.2-3.3-1.2c-2.4,0-3.9,1.4-4.7,4.1c-0.3,0.9-0.5,1.9-0.5,3c0,0.4,0,0.8,0.1,1.2v40.7C297,129.1,297,129.4,297,129.7
		z"/>
	<path id="XMLID_7_" d="M331.7,68h15v64.1c0,1.4,0.3,2.3,0.9,2.8c0.6,0.5,1.5,0.7,2.6,0.7c1.1,0,2.2-0.7,3.5-2
		c0.2-0.2,0.7-0.9,1.3-2V68h15v81h-15v-6.8c-0.2,0.1-0.7,0.6-1.6,1.5c-2.7,2.7-4.8,4.5-6.5,5.4c-1.4,0.8-2.7,1.2-4,1.2
		c-3.6,0-6.4-1.8-8.5-5.4c-1.8-3-2.7-6.4-2.7-10.5V68z"/>
	<path id="XMLID_9_" d="M376.2,40.2h46.2v16.4h-15.1V149h-16V56.6h-15.1V40.2z"/>
	<path id="XMLID_11_" d="M428.3,68h15v64.1c0,1.4,0.3,2.3,0.9,2.8c0.6,0.5,1.5,0.7,2.6,0.7c1.1,0,2.2-0.7,3.5-2
		c0.2-0.2,0.7-0.9,1.3-2V68h15v81h-15v-6.8c-0.2,0.1-0.7,0.6-1.6,1.5c-2.7,2.7-4.8,4.5-6.5,5.4c-1.4,0.8-2.7,1.2-4,1.2
		c-3.6,0-6.4-1.8-8.5-5.4c-1.8-3-2.7-6.4-2.7-10.5V68z"/>
	<path id="XMLID_13_" d="M478.5,40.2h15v33.1c2.7-2.6,5.3-4.4,7.7-5.4c1.3-0.7,2.7-1.1,4.2-1.1c3.5,0,6.5,1.8,8.9,5.3
		c1.8,3.1,2.7,6.6,2.7,10.5v51.7c0,4-0.9,7.5-2.7,10.4c-2.3,3.6-5.2,5.4-8.9,5.4c-2.4,0-5.1-1.1-8-3.3c-0.9-0.7-2.2-1.8-3.8-3.3v5.4
		h-15V40.2z M494.8,134.7c0.9,0.9,1.9,1.4,3.1,1.4c1.1,0,2.1-0.5,2.9-1.4c0.8-0.9,1.2-2.1,1.2-3.5V85.8c0-1.4-0.4-2.6-1.2-3.5
		c-0.8-0.9-1.7-1.4-2.9-1.4c-1.1,0-2.1,0.5-3,1.6c-0.9,1-1.4,2.2-1.4,3.4v45.3C493.4,132.6,493.9,133.7,494.8,134.7z"/>
	<path id="XMLID_17_" d="M528,40.2h15V149h-15V40.2z"/>
	<path id="XMLID_19_" d="M553.6,88.2c0.4-7.9,3.2-13.9,8.2-18.1c2.5-2.2,6.2-3.3,11.1-3.3c8,0,13.6,3.5,16.8,10.6
		c1.4,3.5,2.2,6.9,2.4,10.3v23.6h-24.7v17.6c0.1,2.8,0.9,5.1,2.4,7c0.8,0.8,1.8,1.2,3.1,1.2c2.5,0,4-1.3,4.7-4
		c0.4-1.2,0.7-2.6,0.7-4.2v-8.8h13.9v9.3c-0.2,4-1,7.4-2.3,10.2c-1.3,2.8-3.2,5.2-5.9,7.4c-2.6,2.2-6.3,3.2-11.2,3.2
		c-8.1,0-13.7-3.5-16.9-10.6c-1.4-3.4-2.2-6.9-2.3-10.7V88.2z M578.3,99.6V88.2c0-3-0.7-5.4-2.1-7.1c-0.8-0.8-1.9-1.2-3.3-1.2
		c-2.3,0-3.9,1.4-4.8,4.1c-0.3,0.9-0.6,2.2-0.7,4.1v11.4H578.3z"/>
	<path id="XMLID_22_" d="M602.4,68.1h15v9.2c0.1-0.7,0.4-1.6,1-2.7c0.6-1.1,1.4-2.2,2.5-3.3c3.1-2.9,6.9-4.4,11.4-4.4v16.8
		c-1.2-0.4-2.6-0.6-4.2-0.6c-3.3,0-5.8,0.8-7.5,2.5c-2.2,1.8-3.3,4.3-3.3,7.4v56.2h-15V68.1z"/>
	<path id="XMLID_24_" d="M649.4,125.4c0,3.2,0.4,5.8,1.2,7.7c1.2,3,3.1,4.6,5.8,4.6c3.4,0,5.1-3.3,5.1-9.8c0-1.5-0.5-3.2-1.6-5
		c-1-1.8-2.1-3.3-3.1-4.5c-1.1-1.2-2.6-2.8-4.6-4.8c-4.7-4.5-7.9-8-9.6-10.6c-3-4.5-4.6-9.3-4.6-14.4c0-5.9,1.2-10.7,3.7-14.5
		c3.3-4.8,8.2-7.3,14.5-7.4c0.2,0,0.5,0,0.7,0c7.3,0,12.5,2.5,15.4,7.4c2,3.3,3,8.1,3,14.5h-13.9c0-2.8-0.2-4.9-0.6-6.2
		c-0.9-2.2-2.3-3.3-4.3-3.3c-1.8,0-3.1,1.1-3.8,3.3c-0.6,1.4-0.9,3.5-0.9,6.2c0,2.4,1.1,4.9,3.3,7.6c1.4,1.9,3.6,4.2,6.5,6.9
		c4.6,4.6,7.7,8.2,9.3,10.7c3,4.9,4.5,9.5,4.5,14c0,6-1.4,10.9-4.2,14.8c-3.6,4.9-8.5,7.4-14.8,7.4c-8,0-13.8-3.1-17.3-9.2
		c-2.4-4-3.5-9.2-3.5-15.5H649.4z"/>
</g>
</svg>
